<svg width="14" height="13" viewBox="0 0 14 13" fill="none" xmlns="http://www.w3.org/2000/svg">
<path d="M10.4998 3.24967C10.4724 2.40847 10.3715 1.90634 9.997 1.55913C9.48367 1.08301 8.65767 1.08301 7.00567 1.08301H4.67059C3.01859 1.08301 2.19259 1.08301 1.67984 1.55913C1.1665 2.03472 1.1665 2.80117 1.1665 4.33301V8.66634C1.1665 10.1982 1.1665 10.9646 1.67984 11.4402C2.19317 11.9158 3.01859 11.9163 4.67059 11.9163H7.00625C8.65767 11.9163 9.48367 11.9163 9.997 11.4402C10.3715 11.093 10.4724 10.5914 10.4998 9.74967" stroke="#484848" stroke-width="0.6875" stroke-linecap="round" stroke-linejoin="round"/>
<path d="M11.8077 6.36025L12.4943 5.72271C12.6518 5.57646 12.7311 5.50279 12.7731 5.42371C12.8122 5.34952 12.8326 5.26799 12.8326 5.18537C12.8326 5.10276 12.8122 5.02123 12.7731 4.94704C12.7311 4.86796 12.6518 4.79429 12.4943 4.64804C12.3368 4.50179 12.2574 4.42812 12.1723 4.38912C12.0924 4.35277 12.0046 4.33387 11.9156 4.33387C11.8266 4.33387 11.7388 4.35277 11.6589 4.38912C11.5738 4.42812 11.495 4.50179 11.3369 4.64804L10.6503 5.28558M11.8077 6.36025L8.73584 9.21267L6.99984 9.75L7.5785 8.138L10.6503 5.28558M11.8077 6.36025L10.6503 5.28558M2.9165 10.2917H3.49984L4.229 8.9375L4.95817 10.2917H5.5415M3.49984 3.25H8.1665M3.49984 5.41667H6.99984" stroke="#484848" stroke-width="0.6875" stroke-linecap="round" stroke-linejoin="round"/>
</svg>
