<svg width="14" height="13" viewBox="0 0 14 13" fill="none" xmlns="http://www.w3.org/2000/svg">
<path d="M3.02295 3.65625H4.77295M3.02295 6.5H8.27295M3.02295 8.125H8.27295M3.02295 9.75H4.77295M2.14795 11.7812H9.14795C9.38001 11.7812 9.60257 11.6956 9.76667 11.5433C9.93076 11.3909 10.0229 11.1842 10.0229 10.9688V2.03125C10.0229 1.81576 9.93076 1.6091 9.76667 1.45673C9.60257 1.30435 9.38001 1.21875 9.14795 1.21875H2.14795C1.91588 1.21875 1.69333 1.30435 1.52923 1.45673C1.36514 1.6091 1.27295 1.81576 1.27295 2.03125V10.9688C1.27295 11.1842 1.36514 11.3909 1.52923 11.5433C1.69333 11.6956 1.91588 11.7812 2.14795 11.7812Z" stroke="#484848" stroke-width="0.6875" stroke-linecap="round" stroke-linejoin="round"/>
<path d="M8.27295 3.85938C8.39376 3.85938 8.4917 3.76843 8.4917 3.65625C8.4917 3.54407 8.39376 3.45312 8.27295 3.45312C8.15214 3.45312 8.0542 3.54407 8.0542 3.65625C8.0542 3.76843 8.15214 3.85938 8.27295 3.85938Z" fill="#484848" stroke="#484848" stroke-width="0.34375"/>
</svg>
