<svg width="25" height="25" viewBox="0 0 25 25" fill="none" xmlns="http://www.w3.org/2000/svg">
<path d="M6.02693 2.67871C5.13892 2.67871 4.28729 3.03147 3.65938 3.65938C3.03147 4.28729 2.67871 5.13892 2.67871 6.02693V18.9734C2.67871 19.8614 3.03147 20.713 3.65938 21.3409C4.28729 21.9688 5.13892 22.3216 6.02693 22.3216H18.9734C19.8614 22.3216 20.713 21.9688 21.3409 21.3409C21.9688 20.713 22.3216 19.8614 22.3216 18.9734V6.02693C22.3216 5.13892 21.9688 4.28729 21.3409 3.65938C20.713 3.03147 19.8614 2.67871 18.9734 2.67871H6.02693Z" fill="url(#paint0_linear_2734_5764)"/>
<path d="M5.35742 11.1609C5.35742 10.5689 5.59259 10.0011 6.0112 9.58249C6.42981 9.16388 6.99756 8.92871 7.58956 8.92871C8.18157 8.92871 8.74932 9.16388 9.16793 9.58249C9.58654 10.0011 9.82171 10.5689 9.82171 11.1609C9.82171 11.7529 9.58654 12.3206 9.16793 12.7392C8.74932 13.1578 8.18157 13.393 7.58956 13.393C6.99756 13.393 6.42981 13.1578 6.0112 12.7392C5.59259 12.3206 5.35742 11.7529 5.35742 11.1609ZM7.58956 15.1787C6.99756 15.1787 6.42981 15.4139 6.0112 15.8325C5.59259 16.2511 5.35742 16.8189 5.35742 17.4109C5.35742 18.0029 5.59259 18.5706 6.0112 18.9892C6.42981 19.4078 6.99756 19.643 7.58956 19.643C8.18157 19.643 8.74932 19.4078 9.16793 18.9892C9.58654 18.5706 9.82171 18.0029 9.82171 17.4109C9.82171 16.8189 9.58654 16.2511 9.16793 15.8325C8.74932 15.4139 8.18157 15.1787 7.58956 15.1787ZM11.6074 10.9376C11.6074 10.76 11.678 10.5897 11.8036 10.4641C11.9291 10.3385 12.0995 10.268 12.2771 10.268H18.9735C19.1511 10.268 19.3214 10.3385 19.447 10.4641C19.5726 10.5897 19.6431 10.76 19.6431 10.9376C19.6431 11.1152 19.5726 11.2856 19.447 11.4111C19.3214 11.5367 19.1511 11.6073 18.9735 11.6073H12.2771C12.0995 11.6073 11.9291 11.5367 11.8036 11.4111C11.678 11.2856 11.6074 11.1152 11.6074 10.9376ZM12.2771 16.518C12.0995 16.518 11.9291 16.5885 11.8036 16.7141C11.678 16.8397 11.6074 17.01 11.6074 17.1876C11.6074 17.3652 11.678 17.5356 11.8036 17.6611C11.9291 17.7867 12.0995 17.8573 12.2771 17.8573H18.9735C19.1511 17.8573 19.3214 17.7867 19.447 17.6611C19.5726 17.5356 19.6431 17.3652 19.6431 17.1876C19.6431 17.01 19.5726 16.8397 19.447 16.7141C19.3214 16.5885 19.1511 16.518 18.9735 16.518H12.2771ZM5.35742 6.47335C5.35742 6.29575 5.42797 6.12543 5.55356 5.99984C5.67914 5.87426 5.84946 5.80371 6.02706 5.80371H18.9735C19.1511 5.80371 19.3214 5.87426 19.447 5.99984C19.5726 6.12543 19.6431 6.29575 19.6431 6.47335C19.6431 6.65095 19.5726 6.82128 19.447 6.94686C19.3214 7.07245 19.1511 7.143 18.9735 7.143H6.02706C5.84946 7.143 5.67914 7.07245 5.55356 6.94686C5.42797 6.82128 5.35742 6.65095 5.35742 6.47335Z" fill="url(#paint1_linear_2734_5764)"/>
<defs>
<linearGradient id="paint0_linear_2734_5764" x1="9.69389" y1="2.67871" x2="17.2198" y2="21.2626" gradientUnits="userSpaceOnUse">
<stop stop-color="#B3E0FF"/>
<stop offset="1" stop-color="#8CD0FF"/>
</linearGradient>
<linearGradient id="paint1_linear_2734_5764" x1="4.64314" y1="5.11175" x2="21.9771" y2="8.28764" gradientUnits="userSpaceOnUse">
<stop stop-color="#0094F0"/>
<stop offset="1" stop-color="#2764E7"/>
</linearGradient>
</defs>
</svg>
