<svg width="27" height="27" viewBox="0 0 27 27" fill="none" xmlns="http://www.w3.org/2000/svg">
<path d="M7.443 23.625C6.94275 23.625 6.51487 23.4469 6.15937 23.0906C5.80387 22.7344 5.62575 22.3072 5.625 21.8092V11.943C5.625 11.4435 5.80312 11.016 6.15937 10.6605C6.51562 10.305 6.94312 10.1265 7.44187 10.125H9V7.875C9 6.62175 9.43687 5.55862 10.3106 4.68562C11.1836 3.81187 12.2467 3.375 13.5 3.375C14.7532 3.375 15.8167 3.81187 16.6905 4.68562C17.5642 5.55937 18.0007 6.6225 18 7.875V10.125H19.5581C20.0576 10.125 20.4851 10.3031 20.8406 10.6594C21.1961 11.0156 21.3742 11.4431 21.375 11.9419V21.8081C21.375 22.3076 21.1969 22.7351 20.8406 23.0906C20.4844 23.4461 20.0569 23.6243 19.5581 23.625H7.443ZM13.5 18.5625C13.9747 18.5625 14.3745 18.3997 14.6992 18.0743C15.0247 17.7495 15.1875 17.3497 15.1875 16.875C15.1875 16.4003 15.0247 16.0005 14.6992 15.6757C14.3737 15.351 13.974 15.1882 13.5 15.1875C13.026 15.1868 12.6262 15.3495 12.3007 15.6757C11.9752 16.0005 11.8125 16.4003 11.8125 16.875C11.8125 17.3497 11.9752 17.7495 12.3007 18.0743C12.6255 18.3997 13.0252 18.5625 13.5 18.5625ZM10.125 10.125H16.875V7.875C16.875 6.9375 16.5469 6.14062 15.8906 5.48438C15.2344 4.82812 14.4375 4.5 13.5 4.5C12.5625 4.5 11.7656 4.82812 11.1094 5.48438C10.4531 6.14062 10.125 6.9375 10.125 7.875V10.125Z" fill="url(#paint0_linear_2193_4297)"/>
<defs>
<linearGradient id="paint0_linear_2193_4297" x1="13.5" y1="3.375" x2="13.5" y2="23.625" gradientUnits="userSpaceOnUse">
<stop stop-color="#00AAFF"/>
<stop offset="1" stop-color="#5AC8FF"/>
</linearGradient>
</defs>
</svg>
