<svg width="25" height="25" viewBox="0 0 25 25" fill="none" xmlns="http://www.w3.org/2000/svg">
<path d="M12.5126 2.34375C13.2772 2.35208 14.0386 2.44063 14.7855 2.60729C14.9444 2.64276 15.0883 2.72698 15.1969 2.84819C15.3056 2.96939 15.3738 3.12153 15.3918 3.28333L15.5689 4.87396C15.5939 5.09821 15.6712 5.31347 15.7945 5.5024C15.9179 5.69134 16.0839 5.84868 16.2791 5.96176C16.4744 6.07484 16.6935 6.14051 16.9187 6.15349C17.144 6.16646 17.3692 6.12638 17.5761 6.03646L19.0345 5.39583C19.1826 5.33057 19.3474 5.31296 19.5061 5.34543C19.6647 5.3779 19.8093 5.45885 19.9199 5.57708C20.9741 6.70329 21.7594 8.05378 22.2168 9.52708C22.2646 9.68202 22.263 9.84798 22.2122 10.002C22.1614 10.156 22.064 10.2903 21.9334 10.3865L20.6407 11.3406C20.4586 11.4741 20.3105 11.6487 20.2084 11.8501C20.1063 12.0515 20.0531 12.2742 20.0531 12.5C20.0531 12.7258 20.1063 12.9485 20.2084 13.1499C20.3105 13.3513 20.4586 13.5259 20.6407 13.6594L21.9355 14.6125C22.0663 14.7087 22.1638 14.8433 22.2146 14.9975C22.2654 15.1517 22.2669 15.3178 22.2189 15.4729C21.7618 16.9461 20.9769 18.2966 19.923 19.4229C19.8126 19.5411 19.6682 19.6221 19.5098 19.6548C19.3514 19.6874 19.1868 19.6701 19.0386 19.6052L17.5741 18.9625C17.3674 18.8719 17.1423 18.8312 16.917 18.8437C16.6916 18.8563 16.4724 18.9217 16.2771 19.0347C16.0817 19.1476 15.9157 19.305 15.7925 19.4941C15.6693 19.6832 15.5923 19.8986 15.5678 20.1229L15.3907 21.7125C15.373 21.8724 15.3064 22.023 15.2 22.1436C15.0935 22.2642 14.9524 22.349 14.7959 22.3865C13.2872 22.7461 11.7151 22.7461 10.2064 22.3865C10.0497 22.3492 9.90836 22.2645 9.8017 22.1438C9.69504 22.0232 9.62827 21.8725 9.61052 21.7125L9.43448 20.125C9.40891 19.9014 9.33125 19.6868 9.20774 19.4987C9.08424 19.3105 8.91832 19.1539 8.72332 19.0414C8.52833 18.929 8.30968 18.8638 8.08494 18.8512C7.8602 18.8386 7.63563 18.8788 7.42927 18.9687L5.96469 19.6104C5.81641 19.6756 5.65156 19.693 5.49293 19.6603C5.33431 19.6277 5.18976 19.5465 5.07927 19.4281C4.02523 18.3005 3.24063 16.9486 2.78448 15.474C2.73645 15.3189 2.73793 15.1527 2.78871 14.9985C2.83949 14.8443 2.93704 14.7097 3.06781 14.6135L4.3626 13.6594C4.54473 13.5259 4.69285 13.3513 4.79495 13.1499C4.89704 12.9485 4.95025 12.7258 4.95025 12.5C4.95025 12.2742 4.89704 12.0515 4.79495 11.8501C4.69285 11.6487 4.54473 11.4741 4.3626 11.3406L3.06781 10.3885C2.93704 10.2923 2.83949 10.1578 2.78871 10.0036C2.73793 9.84939 2.73645 9.6832 2.78448 9.52813C3.24181 8.05482 4.02711 6.70433 5.08135 5.57812C5.19196 5.45989 5.33657 5.37894 5.49519 5.34647C5.65381 5.314 5.8186 5.33161 5.96677 5.39688L7.4251 6.0375C7.63241 6.12737 7.85791 6.16736 8.08348 6.15426C8.30906 6.14116 8.52841 6.07534 8.72393 5.96208C8.91944 5.84882 9.08567 5.69128 9.20926 5.50213C9.33284 5.31297 9.41034 5.09746 9.43552 4.87292L9.6126 3.28333C9.63048 3.1212 9.69865 2.96873 9.80756 2.84731C9.91647 2.72588 10.0607 2.64159 10.2199 2.60625C10.9657 2.44097 11.73 2.35347 12.5126 2.34375ZM12.5001 9.375C11.6713 9.375 10.8764 9.70424 10.2904 10.2903C9.70434 10.8763 9.3751 11.6712 9.3751 12.5C9.3751 13.3288 9.70434 14.1237 10.2904 14.7097C10.8764 15.2958 11.6713 15.625 12.5001 15.625C13.3289 15.625 14.1238 15.2958 14.7098 14.7097C15.2959 14.1237 15.6251 13.3288 15.6251 12.5C15.6251 11.6712 15.2959 10.8763 14.7098 10.2903C14.1238 9.70424 13.3289 9.375 12.5001 9.375Z" fill="url(#paint0_linear_2193_4301)"/>
<defs>
<linearGradient id="paint0_linear_2193_4301" x1="12.5017" y1="2.34375" x2="12.5017" y2="22.6562" gradientUnits="userSpaceOnUse">
<stop stop-color="#00AAFF"/>
<stop offset="1" stop-color="#5AC8FF"/>
</linearGradient>
</defs>
</svg>
