<svg width="27" height="27" viewBox="0 0 27 27" fill="none" xmlns="http://www.w3.org/2000/svg">
<path d="M12.375 19.125H20.25C20.5688 19.125 20.8361 19.017 21.0521 18.801C21.2681 18.585 21.3758 18.318 21.375 18V13.5C21.375 13.1812 21.267 12.9142 21.051 12.699C20.835 12.4837 20.568 12.3757 20.25 12.375H12.375C12.0563 12.375 11.7893 12.483 11.574 12.699C11.3588 12.915 11.2508 13.182 11.25 13.5V18C11.25 18.3187 11.358 18.5861 11.574 18.8021C11.79 19.0181 12.057 19.1257 12.375 19.125ZM4.5 22.5C3.88125 22.5 3.35175 22.2799 2.9115 21.8396C2.47125 21.3994 2.25075 20.8695 2.25 20.25V6.75C2.25 6.13125 2.4705 5.60175 2.9115 5.1615C3.3525 4.72125 3.882 4.50075 4.5 4.5H22.5C23.1188 4.5 23.6486 4.7205 24.0896 5.1615C24.5306 5.6025 24.7508 6.132 24.75 6.75V20.25C24.75 20.8687 24.5299 21.3986 24.0896 21.8396C23.6494 22.2806 23.1195 22.5007 22.5 22.5H4.5Z" fill="url(#paint0_linear_2193_4293)"/>
<defs>
<linearGradient id="paint0_linear_2193_4293" x1="13.5" y1="4.5" x2="13.5" y2="22.5" gradientUnits="userSpaceOnUse">
<stop stop-color="#00AAFF"/>
<stop offset="1" stop-color="#5AC8FF"/>
</linearGradient>
</defs>
</svg>
