<svg width="36" height="32" viewBox="0 0 36 32" fill="none" xmlns="http://www.w3.org/2000/svg">
<g clip-path="url(#clip0_3262_4107)">
<path fill-rule="evenodd" clip-rule="evenodd" d="M13.1625 22.5314C13.2311 22.6924 13.2674 22.8654 13.2692 23.0405C13.271 23.2155 13.2383 23.3892 13.173 23.5516C13.1076 23.7141 13.0109 23.862 12.8884 23.9871C12.7659 24.1121 12.62 24.2118 12.4589 24.2805C12.2979 24.3492 12.1249 24.3854 11.9498 24.3872C11.7748 24.389 11.6011 24.3563 11.4386 24.291C11.2762 24.2256 11.1283 24.129 11.0032 24.0064C10.8781 23.8839 10.7784 23.738 10.7098 23.5769C10.5711 23.2517 10.5674 22.8847 10.6993 22.5567C10.8313 22.2286 11.0881 21.9665 11.4134 21.8278C11.7386 21.6892 12.1056 21.6854 12.4336 21.8173C12.7617 21.9493 13.0238 22.2061 13.1625 22.5314ZM29.6638 15.497C29.8025 15.8223 29.8062 16.1893 29.6743 16.5173C29.5423 16.8453 29.2855 17.1075 28.9603 17.2461C28.635 17.3848 28.268 17.3886 27.94 17.2566C27.612 17.1247 27.3498 16.8678 27.2111 16.5426C27.0725 16.2173 27.0687 15.8503 27.2007 15.5223C27.3326 15.1943 27.5894 14.9321 27.9147 14.7934C28.2399 14.6548 28.6069 14.651 28.935 14.783C29.263 14.9149 29.5252 15.1718 29.6638 15.497Z" fill="#00A6ED"/>
<path fill-rule="evenodd" clip-rule="evenodd" d="M12.3467 13.4966L16.2278 15.7587L11.3643 18.529L11.3918 14.0321C10.9298 14.0456 10.4849 13.7766 10.293 13.3265C10.0416 12.7366 10.3176 12.0502 10.9075 11.7987C11.1363 11.7026 11.3898 11.682 11.6311 11.7398C11.8725 11.7975 12.0891 11.9308 12.2496 12.1201C12.41 12.3094 12.506 12.5449 12.5235 12.7924C12.5409 13.04 12.479 13.2866 12.3467 13.4966ZM22.297 9.38334L25.5604 12.4774L20.194 14.0679L21.2494 9.7015C20.8873 9.62657 20.562 9.37999 20.4065 9.01519C20.155 8.42531 20.4311 7.73894 21.021 7.48748C21.6109 7.23601 22.2973 7.5121 22.5487 8.10198C22.7406 8.55216 22.6266 9.05936 22.297 9.38334Z" fill="#E19747"/>
<path d="M27.6009 6.82833C27.3494 6.23844 26.6631 5.96236 26.0732 6.21382C25.4833 6.46529 25.2072 7.15165 25.4587 7.74154C25.5513 7.95887 25.7105 8.13865 25.8886 8.25533C25.7179 8.32812 25.5637 8.43972 25.447 8.61787L23.2371 11.8897C22.9427 12.3179 22.3752 12.4497 21.9225 12.184L16.5686 9.02728C16.5286 9.00063 16.4855 8.97897 16.4402 8.96277C16.6389 8.70916 16.7476 8.39666 16.7492 8.07448C16.7509 7.7523 16.6453 7.43873 16.4491 7.18314C16.253 6.92755 15.9774 6.74446 15.6657 6.66268C15.3541 6.58091 15.0241 6.6051 14.7277 6.73144C14.4314 6.85778 14.1854 7.07911 14.0286 7.36057C13.8718 7.64203 13.8131 7.96764 13.8617 8.28614C13.9102 8.60465 14.0634 8.89795 14.2969 9.11988C14.5305 9.34181 14.8312 9.47977 15.1518 9.51202C15.134 9.55631 15.1162 9.60059 15.1094 9.64932L13.6796 15.6979C13.5657 16.2051 13.0698 16.5266 12.557 16.4425L8.66625 15.7713C8.45693 15.7322 8.26963 15.7661 8.09887 15.8389C8.1425 15.6185 8.11857 15.3903 8.02593 15.1729C7.77446 14.5831 7.0881 14.307 6.49821 14.5584C5.90832 14.8099 5.63224 15.4963 5.8837 16.0862C6.13517 16.676 6.82153 16.9521 7.41142 16.7007C7.45023 16.6841 7.48904 16.6676 7.51677 16.6466C7.49197 16.8681 7.5425 17.0942 7.68502 17.2995L13.9945 26.5061C14.4497 27.1651 15.3078 27.4138 16.0452 27.0994L28.5104 21.7856C29.2478 21.4713 29.6626 20.6799 29.5023 19.8952L27.2289 8.96807C27.1796 8.72313 27.0403 8.52566 26.8744 8.39461C26.9132 8.37806 26.9553 8.36928 26.9864 8.35605C27.5763 8.10458 27.8524 7.41822 27.6009 6.82833Z" fill="#FFC300"/>
<path d="M21.0137 21.4775C21.5284 21.2581 21.9348 20.8433 22.1435 20.3242C22.3523 19.8052 22.3464 19.2245 22.127 18.7099C21.9076 18.1953 21.4928 17.7888 20.9737 17.5801C20.4547 17.3713 19.874 17.3773 19.3594 17.5966C18.8447 17.816 18.4383 18.2309 18.2296 18.7499C18.0208 19.2689 18.0267 19.8496 18.2461 20.3642C18.4655 20.8789 18.8803 21.2853 19.3994 21.4941C19.9184 21.7028 20.4991 21.6969 21.0137 21.4775Z" fill="#00A6ED"/>
<path fill-rule="evenodd" clip-rule="evenodd" d="M16.3136 21.1882C16.4452 21.497 16.4488 21.8454 16.3235 22.1569C16.1983 22.4683 15.9544 22.7172 15.6456 22.8488C15.3369 22.9804 14.9884 22.984 14.677 22.8587C14.3656 22.7335 14.1167 22.4896 13.9851 22.1809C13.8534 21.8721 13.8499 21.5237 13.9751 21.2122C14.1004 20.9008 14.3442 20.6519 14.653 20.5203C14.9618 20.3887 15.3102 20.3851 15.6216 20.5104C15.9331 20.6356 16.182 20.8795 16.3136 21.1882ZM26.4038 16.8869C26.5354 17.1957 26.539 17.5441 26.4137 17.8555C26.2884 18.1669 26.0446 18.4158 25.7358 18.5475C25.427 18.6791 25.0786 18.6827 24.7672 18.5574C24.4558 18.4321 24.2069 18.1883 24.0753 17.8795C23.9436 17.5707 23.9401 17.2223 24.0653 16.9109C24.1906 16.5995 24.4344 16.3506 24.7432 16.2189C25.052 16.0873 25.4004 16.0837 25.7118 16.209C26.0232 16.3343 26.2721 16.5781 26.4038 16.8869Z" fill="#F8312F"/>
</g>
<defs>
<clipPath id="clip0_3262_4107">
<rect width="27" height="27" fill="white" transform="translate(0 6.58789) rotate(-23.0881)"/>
</clipPath>
</defs>
</svg>
