<svg width="36" height="36" viewBox="0 0 36 36" fill="none" xmlns="http://www.w3.org/2000/svg">
<rect width="36" height="36" rx="18" fill="#FFEBEB"/>
<g clip-path="url(#clip0_2458_4164)">
<path d="M24.625 12.7C23.4921 12.3972 22.3853 12.0043 21.315 11.525C20.2622 11.0683 19.2459 10.5317 18.275 9.92L18 9.75L17.73 9.925C16.7591 10.5367 15.7428 11.0733 14.69 11.53C13.618 12.0078 12.5094 12.3991 11.375 12.7L11 12.795V16.965C11 23.66 17.765 26.165 17.83 26.19L18 26.25L18.17 26.19C18.24 26.19 25 23.665 25 16.965V12.795L24.625 12.7ZM21.255 19.775C21.3876 19.9076 21.4621 20.0875 21.4621 20.275C21.4621 20.4625 21.3876 20.6424 21.255 20.775C21.1224 20.9076 20.9425 20.9821 20.755 20.9821C20.5675 20.9821 20.3876 20.9076 20.255 20.775L18 18.5L15.735 20.765C15.6014 20.8957 15.4219 20.9689 15.235 20.9689C15.0481 20.9689 14.8686 20.8957 14.735 20.765C14.6685 20.6998 14.6156 20.622 14.5796 20.5362C14.5435 20.4503 14.5249 20.3581 14.5249 20.265C14.5249 20.1719 14.5435 20.0797 14.5796 19.9938C14.6156 19.908 14.6685 19.8302 14.735 19.765L17 17.5L14.735 15.235C14.6024 15.1024 14.5279 14.9225 14.5279 14.735C14.5279 14.6421 14.5462 14.5502 14.5817 14.4644C14.6173 14.3786 14.6693 14.3007 14.735 14.235C14.8007 14.1693 14.8786 14.1173 14.9644 14.0817C15.0502 14.0462 15.1421 14.0279 15.235 14.0279C15.4225 14.0279 15.6024 14.1024 15.735 14.235L18 16.5L20.265 14.235C20.3976 14.1024 20.5775 14.0279 20.765 14.0279C20.9525 14.0279 21.1324 14.1024 21.265 14.235C21.3976 14.3676 21.4721 14.5475 21.4721 14.735C21.4721 14.9225 21.3976 15.1024 21.265 15.235L19 17.5L21.255 19.775Z" fill="#BF0000"/>
</g>
<defs>
<clipPath id="clip0_2458_4164">
<rect width="18" height="18" fill="white" transform="translate(9 9)"/>
</clipPath>
</defs>
</svg>
