<svg width="21" height="24" viewBox="0 0 21 24" fill="none" xmlns="http://www.w3.org/2000/svg">
<g clip-path="url(#clip0_2393_5217)">
<path d="M15.5631 8.64117C17.0953 9.74558 18.9723 10.3954 20.9995 10.3954V6.46189C20.6158 6.46204 20.2332 6.42165 19.8578 6.34139V9.43764C17.8307 9.43764 15.9539 8.7879 14.4214 7.68357V15.7108C14.4214 19.7265 11.193 22.9816 7.21089 22.9816C5.72506 22.9816 4.34398 22.5286 3.19678 21.7518C4.50616 23.1018 6.33218 23.9393 8.35228 23.9393C12.3347 23.9393 15.5632 20.6842 15.5632 16.6683V8.64117H15.5631ZM16.9715 4.67273C16.1885 3.81013 15.6743 2.69538 15.5631 1.46293V0.957031H14.4812C14.7535 2.5234 15.6825 3.86161 16.9715 4.67273ZM5.71546 18.6704C5.27794 18.092 5.04145 17.3844 5.04256 16.6568C5.04256 14.8203 6.51921 13.3311 8.34104 13.3311C8.6805 13.3309 9.01797 13.3835 9.34157 13.4869V9.46544C8.96341 9.41322 8.5818 9.39096 8.20036 9.39916V12.5293C7.87659 12.4258 7.53895 12.3732 7.19933 12.3735C5.37758 12.3735 3.90102 13.8625 3.90102 15.6993C3.90102 16.9981 4.63905 18.1226 5.71546 18.6704Z" fill="#FF004F"/>
<path d="M14.4213 7.68349C15.9539 8.78782 17.8305 9.43756 19.8577 9.43756V6.34131C18.7261 6.09824 17.7245 5.50205 16.9713 4.67273C15.6822 3.86153 14.7534 2.52332 14.481 0.957031H11.6392V16.6682C11.6327 18.4998 10.1586 19.9828 8.34075 19.9828C7.26958 19.9828 6.31786 19.468 5.71517 18.6703C4.63892 18.1226 3.9008 16.9981 3.9008 15.6994C3.9008 13.8627 5.37737 12.3736 7.19912 12.3736C7.54816 12.3736 7.88457 12.4284 8.20014 12.5293V9.39924C4.28791 9.48076 1.1416 12.704 1.1416 16.6683C1.1416 18.6472 1.92508 20.4411 3.19673 21.752C4.34394 22.5286 5.72493 22.9817 7.21085 22.9817C11.1931 22.9817 14.4214 19.7264 14.4214 15.7108L14.4213 7.68349Z" fill="black"/>
<path d="M19.8577 6.34179V5.50477C18.8373 5.50627 17.8371 5.21813 16.9714 4.6733C17.7377 5.51927 18.7468 6.10265 19.8577 6.34196M14.481 0.957517C14.455 0.807854 14.4351 0.657193 14.4213 0.505903V0H10.4974V15.7113C10.4911 17.5428 9.01704 19.0258 7.19906 19.0258C6.68368 19.0266 6.17534 18.905 5.71512 18.671C6.3178 19.4686 7.26953 19.9833 8.34069 19.9833C10.1585 19.9833 11.6328 18.5004 11.6392 16.6688V0.9576L14.481 0.957517ZM8.20034 9.39972V8.5085C7.87245 8.46333 7.54189 8.44072 7.21096 8.4408C3.22834 8.4408 0 11.696 0 15.7113C0 18.2287 1.26878 20.4473 3.19684 21.7524C1.92519 20.4416 1.14171 18.6476 1.14171 16.6687C1.14171 12.7046 4.28794 9.48124 8.20034 9.39972Z" fill="#00F2EA"/>
</g>
<defs>
<clipPath id="clip0_2393_5217">
<rect width="21" height="24" fill="white"/>
</clipPath>
</defs>
</svg>
