<svg width="24" height="24" viewBox="0 0 24 24" fill="none" xmlns="http://www.w3.org/2000/svg">
<g clip-path="url(#clip0_1_3)">
<path d="M12 2C13.3807 2 14.5 3.11929 14.5 4.5C14.5 5.88071 13.3807 7 12 7C10.6193 7 9.5 5.88071 9.5 4.5C9.5 3.11929 10.6193 2 12 2Z" fill="#1F2937"/>
<path d="M9.25 9C9.54018 8.38071 10.1709 8 10.8554 8H13.1446C13.8291 8 14.4598 8.38071 14.75 9L17.5 15.5H15.75L14 11.25V22H12.25V16.5H11.75V22H10V11.25L8.25 15.5H6.5L9.25 9Z" fill="#1F2937"/>
</g>
<defs>
<clipPath id="clip0_1_3">
<rect width="24" height="24" fill="white"/>
</clipPath>
</defs>
</svg>

