<svg width="24" height="24" viewBox="0 0 24 24" fill="none" xmlns="http://www.w3.org/2000/svg">
<g clip-path="url(#clip0_1_2)">
<path d="M12.0001 0C5.3826 0 0 5.15813 0 11.5219C0 13.9118 0.692548 16.1565 1.9117 18.0782L0.196798 24L6.32114 22.3206C7.99515 23.3153 9.94128 23.8281 12.0001 23.8281C18.6176 23.8281 24.0001 18.67 24.0001 12.3062C24.0001 5.9425 18.6176 0.784375 12.0001 0.784375V0ZM12.0001 21.8063C10.2189 21.8063 8.52507 21.3431 7.08398 20.5075L6.7207 20.2875L3.02152 21.3375L4.0707 17.7706L3.81407 17.385C2.60251 15.5744 1.96875 13.5931 1.96875 11.5219C1.96875 6.21531 6.39351 2 12.0001 2C17.6067 2 22.0315 6.21531 22.0315 11.5219C22.0315 16.8284 17.6067 21.8063 12.0001 21.8063Z" fill="#25D366"/>
<path d="M18.2815 14.6056C17.9746 14.4494 16.1815 13.5647 15.8859 13.4681C15.59 13.3716 15.3711 13.3228 15.1523 13.6344C14.9336 13.9459 14.3566 14.6547 14.1719 14.8734C13.9871 15.0922 13.8023 15.1219 13.4955 14.9656C13.1886 14.8094 12.3203 14.5141 11.2676 13.5553C10.4297 12.7931 9.84375 11.8616 9.65899 11.55C9.47423 11.2384 9.64102 11.0628 9.79727 10.9069C9.93164 10.7731 10.0898 10.5637 10.2461 10.3566C10.402 10.1494 10.4602 10.0006 10.5754 9.75237C10.6906 9.50431 10.6324 9.2854 10.5438 9.12953C10.4547 8.97366 9.85665 7.50344 9.58671 6.84641C9.33086 6.22219 9.06368 6.31562 8.84767 6.30625C8.64486 6.29766 8.42617 6.29453 8.20764 6.29453C7.9891 6.29453 7.62326 6.37937 7.30548 6.69297C6.9877 7.00672 6.15121 7.77422 6.15121 9.24641C6.15121 10.7186 7.30918 12.1569 7.46371 12.3606C7.61848 12.5641 9.64986 15.5372 12.6633 16.7984C14.0783 17.3897 14.6599 17.5531 15.2543 17.6875C16.0273 17.8659 16.7246 17.8234 17.2875 17.7387C17.9297 17.6416 19.1867 16.9837 19.454 16.2284C19.7211 15.4731 19.7211 14.9281 19.6398 14.7822C19.5584 14.6361 19.4025 14.5744 19.0957 14.4184L18.2815 14.6056Z" fill="#25D366"/>
</g>
<defs>
<clipPath id="clip0_1_2">
<rect width="24" height="24" fill="white"/>
</clipPath>
</defs>
</svg>

